<?xml version="1.0" standalone="no"?>
<!DOCTYPE svg PUBLIC "-//W3C//DTD SVG 20010904//EN"
 "http://www.w3.org/TR/2001/REC-SVG-20010904/DTD/svg10.dtd">
<svg version="1.0" xmlns="http://www.w3.org/2000/svg"
 width="70.000000pt" height="70.000000pt" viewBox="0 0 70.000000 70.000000"
 preserveAspectRatio="xMidYMid meet">
<metadata>
Created by potrace 1.16, written by Peter Selinger 2001-2019
</metadata>
<g transform="translate(0.000000,70.000000) scale(0.100000,-0.100000)"
fill="#ffffff" stroke="none">
<path d="M158 552 c-138 -100 -147 -109 -148 -140 0 -29 3 -32 20 -27 19 6 20
1 22 -177 l2 -183 6 192 5 192 125 91 c168 122 167 122 335 -1 l125 -91 0
-189 c0 -119 4 -189 10 -189 6 0 10 67 10 180 0 155 2 179 15 174 12 -5 15 2
15 28 0 31 -7 39 -65 81 l-65 47 0 60 0 60 -35 0 c-32 0 -35 -2 -35 -30 0 -16
-3 -30 -6 -30 -3 0 -25 14 -49 30 -34 23 -54 30 -92 30 -45 -1 -57 -8 -195
-108z m295 58 l56 -40 3 37 c2 31 7 39 26 41 21 3 22 0 22 -56 l0 -60 65 -47
c42 -30 65 -53 65 -66 0 -10 -2 -19 -5 -19 -2 0 -66 45 -141 100 -130 95 -140
100 -187 100 -46 0 -57 -6 -187 -100 -77 -55 -142 -100 -145 -100 -4 0 -5 9
-3 20 2 13 56 59 148 125 175 126 192 130 283 65z"/>
<path d="M287 444 c-4 -4 -7 -40 -7 -80 l0 -73 -87 -3 -88 -3 0 -125 0 -125
93 -3 c69 -2 93 1 96 10 2 7 7 22 12 33 6 18 8 18 11 3 5 -22 43 -24 43 -3 0
9 9 15 25 15 17 0 25 -5 25 -18 0 -21 62 -52 68 -34 5 16 59 15 65 0 3 -10 11
-9 33 4 l29 17 0 113 0 113 -42 3 -42 3 -3 77 -3 77 -111 3 c-60 1 -113 -1
-117 -4z m221 -61 l3 -53 -110 0 -111 0 0 55 0 56 108 -3 107 -3 3 -52z m-1
-80 c3 -8 -12 -13 -44 -15 l-48 -3 -5 -90 -5 -90 -48 -3 c-32 -2 -49 1 -51 10
-3 7 -6 57 -9 111 l-4 98 105 -3 c71 -2 107 -7 109 -15z m91 -135 l3 -108 -91
0 -90 0 0 103 c0 57 3 107 7 111 4 4 43 5 88 4 l80 -3 3 -107z m-308 -13 l0
-55 -90 0 -90 0 0 55 0 55 90 0 90 0 0 -55z"/>
</g>
</svg>
