<svg width="211" height="61" viewBox="0 0 211 61" fill="none" xmlns="http://www.w3.org/2000/svg">
<path d="M5 52C165.771 52 206.655 52 207 52" stroke="#23B132"/>
<path d="M7.645 48C7.05833 48 6.545 47.7983 6.105 47.395C5.70167 46.955 5.5 46.4417 5.5 45.855V7.19C5.5 6.60333 5.70167 6.10833 6.105 5.705C6.545 5.265 7.05833 5.045 7.645 5.045C8.23167 5.045 8.72667 5.265 9.13 5.705C9.57 6.10833 9.79 6.60333 9.79 7.19V25.89L29.865 5.815C30.1583 5.52166 30.4333 5.32 30.69 5.21C30.9467 5.1 31.24 5.045 31.57 5.045C32.23 5.045 32.725 5.24667 33.055 5.65C33.385 6.05333 33.5317 6.54833 33.495 7.135C33.495 7.685 33.275 8.21666 32.835 8.73L17.765 23.8L33 44.59C33.33 45.0667 33.4583 45.58 33.385 46.13C33.3483 46.6433 33.1467 47.0833 32.78 47.45C32.4133 47.8167 31.9733 48 31.46 48C30.6533 48 30.0483 47.6883 29.645 47.065L14.685 26.825L9.79 31.775V45.855C9.79 46.4417 9.57 46.955 9.13 47.395C8.72667 47.7983 8.23167 48 7.645 48ZM48.2187 48.275C45.3953 48.275 42.8653 47.615 40.6287 46.295C38.392 44.9383 36.6137 43.105 35.2937 40.795C34.0103 38.485 33.3687 35.8817 33.3687 32.985C33.3687 30.0517 34.0287 27.43 35.3487 25.12C36.7053 22.81 38.5387 20.995 40.8487 19.675C43.1587 18.3183 45.762 17.64 48.6587 17.64C51.5553 17.64 54.1403 18.3183 56.4137 19.675C58.7237 20.995 60.5387 22.81 61.8587 25.12C63.2153 27.43 63.912 30.0517 63.9487 32.985L62.2437 34.305C62.2437 36.945 61.6203 39.3283 60.3737 41.455C59.1637 43.545 57.4953 45.2133 55.3687 46.46C53.2787 47.67 50.8953 48.275 48.2187 48.275ZM48.6587 44.425C50.7853 44.425 52.6737 43.93 54.3237 42.94C56.0103 41.95 57.3303 40.5933 58.2837 38.87C59.2737 37.11 59.7687 35.1483 59.7687 32.985C59.7687 30.785 59.2737 28.8233 58.2837 27.1C57.3303 25.3767 56.0103 24.02 54.3237 23.03C52.6737 22.0033 50.7853 21.49 48.6587 21.49C46.5687 21.49 44.6803 22.0033 42.9937 23.03C41.307 24.02 39.9687 25.3767 38.9787 27.1C37.9887 28.8233 37.4937 30.785 37.4937 32.985C37.4937 35.1483 37.9887 37.11 38.9787 38.87C39.9687 40.5933 41.307 41.95 42.9937 42.94C44.6803 43.93 46.5687 44.425 48.6587 44.425ZM61.8037 48C61.1803 48 60.667 47.8167 60.2637 47.45C59.8603 47.0467 59.6587 46.5333 59.6587 45.91V36.505L60.7037 32.16L63.9487 32.985V45.91C63.9487 46.5333 63.747 47.0467 63.3437 47.45C62.9403 47.8167 62.427 48 61.8037 48ZM71.1954 29.465C71.3054 27.1917 71.892 25.1567 72.9554 23.36C74.0554 21.5633 75.467 20.1517 77.1904 19.125C78.9504 18.0983 80.8937 17.585 83.0204 17.585C84.707 17.585 86.0087 17.8233 86.9254 18.3C87.842 18.7767 88.1904 19.4733 87.9704 20.39C87.8237 20.94 87.567 21.3067 87.2004 21.49C86.8704 21.6733 86.4487 21.7467 85.9354 21.71C85.4587 21.6733 84.9087 21.6367 84.2854 21.6C82.232 21.4167 80.3987 21.6367 78.7854 22.26C77.2087 22.8467 75.9437 23.7633 74.9904 25.01C74.0737 26.2567 73.6154 27.7417 73.6154 29.465H71.1954ZM71.5254 48C70.8654 48 70.352 47.8167 69.9854 47.45C69.6187 47.0833 69.4354 46.57 69.4354 45.91V20.005C69.4354 19.345 69.6187 18.8317 69.9854 18.465C70.352 18.0983 70.8654 17.915 71.5254 17.915C72.1854 17.915 72.6987 18.0983 73.0654 18.465C73.432 18.8317 73.6154 19.345 73.6154 20.005V45.91C73.6154 46.57 73.432 47.0833 73.0654 47.45C72.6987 47.8167 72.1854 48 71.5254 48ZM103.369 48.275C100.435 48.275 97.8136 47.615 95.5036 46.295C93.1936 44.975 91.3786 43.16 90.0586 40.85C88.7386 38.54 88.0786 35.9183 88.0786 32.985C88.0786 30.015 88.7386 27.375 90.0586 25.065C91.3786 22.755 93.1936 20.94 95.5036 19.62C97.8136 18.3 100.435 17.64 103.369 17.64C106.302 17.64 108.905 18.3 111.179 19.62C113.489 20.94 115.304 22.755 116.624 25.065C117.944 27.375 118.622 30.015 118.659 32.985C118.659 35.9183 117.98 38.54 116.624 40.85C115.304 43.16 113.489 44.975 111.179 46.295C108.905 47.615 106.302 48.275 103.369 48.275ZM103.369 44.425C105.495 44.425 107.402 43.93 109.089 42.94C110.775 41.95 112.095 40.5933 113.049 38.87C114.002 37.1467 114.479 35.185 114.479 32.985C114.479 30.785 114.002 28.8233 113.049 27.1C112.095 25.34 110.775 23.965 109.089 22.975C107.402 21.985 105.495 21.49 103.369 21.49C101.242 21.49 99.3353 21.985 97.6486 22.975C95.962 23.965 94.6236 25.34 93.6336 27.1C92.6803 28.8233 92.2036 30.785 92.2036 32.985C92.2036 35.185 92.6803 37.1467 93.6336 38.87C94.6236 40.5933 95.962 41.95 97.6486 42.94C99.3353 43.93 101.242 44.425 103.369 44.425ZM126.62 46.57L123.155 44.7L143.615 18.685L146.475 21.105L126.62 46.57ZM124.695 48C123.412 48 122.77 47.3583 122.77 46.075C122.77 44.7917 123.412 44.15 124.695 44.15H145.1C146.384 44.15 147.025 44.7917 147.025 46.075C147.025 47.3583 146.384 48 145.1 48H124.695ZM124.475 21.765C123.192 21.765 122.55 21.1233 122.55 19.84C122.55 18.5567 123.192 17.915 124.475 17.915H144.88C146.164 17.915 146.805 18.5567 146.805 19.84C146.805 21.1233 146.164 21.765 144.88 21.765H124.475ZM154.056 46.57L150.591 44.7L171.051 18.685L173.911 21.105L154.056 46.57ZM152.131 48C150.848 48 150.206 47.3583 150.206 46.075C150.206 44.7917 150.848 44.15 152.131 44.15H172.536C173.819 44.15 174.461 44.7917 174.461 46.075C174.461 47.3583 173.819 48 172.536 48H152.131ZM151.911 21.765C150.628 21.765 149.986 21.1233 149.986 19.84C149.986 18.5567 150.628 17.915 151.911 17.915H172.316C173.599 17.915 174.241 18.5567 174.241 19.84C174.241 21.1233 173.599 21.765 172.316 21.765H151.911ZM191.197 48.275C188.374 48.275 185.844 47.615 183.607 46.295C181.371 44.9383 179.592 43.105 178.272 40.795C176.989 38.485 176.347 35.8817 176.347 32.985C176.347 30.0517 177.007 27.43 178.327 25.12C179.684 22.81 181.517 20.995 183.827 19.675C186.137 18.3183 188.741 17.64 191.637 17.64C194.534 17.64 197.119 18.3183 199.392 19.675C201.702 20.995 203.517 22.81 204.837 25.12C206.194 27.43 206.891 30.0517 206.927 32.985L205.222 34.305C205.222 36.945 204.599 39.3283 203.352 41.455C202.142 43.545 200.474 45.2133 198.347 46.46C196.257 47.67 193.874 48.275 191.197 48.275ZM191.637 44.425C193.764 44.425 195.652 43.93 197.302 42.94C198.989 41.95 200.309 40.5933 201.262 38.87C202.252 37.11 202.747 35.1483 202.747 32.985C202.747 30.785 202.252 28.8233 201.262 27.1C200.309 25.3767 198.989 24.02 197.302 23.03C195.652 22.0033 193.764 21.49 191.637 21.49C189.547 21.49 187.659 22.0033 185.972 23.03C184.286 24.02 182.947 25.3767 181.957 27.1C180.967 28.8233 180.472 30.785 180.472 32.985C180.472 35.1483 180.967 37.11 181.957 38.87C182.947 40.5933 184.286 41.95 185.972 42.94C187.659 43.93 189.547 44.425 191.637 44.425ZM204.782 48C204.159 48 203.646 47.8167 203.242 47.45C202.839 47.0467 202.637 46.5333 202.637 45.91V36.505L203.682 32.16L206.927 32.985V45.91C206.927 46.5333 206.726 47.0467 206.322 47.45C205.919 47.8167 205.406 48 204.782 48Z" fill="#23B132"/>
</svg>
